<?xml version="1.0" encoding="UTF-8"?>
<svg version="1.1" xmlns="http://www.w3.org/2000/svg" width="500" height="500">
<path d="M0 0 C165 0 330 0 500 0 C500 165 500 330 500 500 C335 500 170 500 0 500 C0 335 0 170 0 0 Z " fill="#0E0C15" transform="translate(0,0)"/>
<path d="M0 0 C37 0 37 0 47 4 C51.03087281 8.03087281 53.2851239 12.01927071 53.3125 17.75 C53.14487126 23.75816681 52.26901 28.41543232 48.23046875 33.015625 C44.40420192 36.6150959 41.45599846 38.86360004 36 39 C36 39.66 36 40.32 36 41 C36.60593994 41.07621582 37.21187988 41.15243164 37.83618164 41.23095703 C40.77687877 42.27611059 41.22479597 43.55178926 42.62109375 46.3046875 C43.07959717 47.19373779 43.53810059 48.08278809 44.01049805 48.9987793 C44.71686401 50.42250854 44.71686401 50.42250854 45.4375 51.875 C45.92323486 52.82995361 46.40896973 53.78490723 46.90942383 54.76879883 C56 72.74943501 56 72.74943501 56 76 C52.37 76 48.74 76 45 76 C44.52691406 75.04222656 44.05382812 74.08445312 43.56640625 73.09765625 C39.81852098 65.53959664 36.00278637 58.02229647 32.0625 50.5625 C31.67328369 49.82330322 31.28406738 49.08410645 30.88305664 48.32250977 C29.24670612 44.94918929 29.24670612 44.94918929 27 42 C22.07036605 42.13240752 17.46684769 42.83862209 13 45 C16.76512691 40.45047165 21.4805658 38.35134791 27.30859375 37.76953125 C28.07300781 37.72183594 28.83742187 37.67414063 29.625 37.625 C34.57686937 37.18882498 36.65448354 35.67190831 40 32 C42.94855028 26.37094946 42.94208995 19.00388227 41.5 12.875 C39.92241714 8.71591791 37.69277007 6.37392362 34 4 C26.95204129 0.86947474 26.95204129 0.86947474 10 1 C10 15.85 10 30.7 10 46 C10.66 46.33 11.32 46.66 12 47 C11.505 47.495 11.505 47.495 11 48 C10.8415735 50.0708472 10.74875578 52.14678029 10.68359375 54.22265625 C10.64169922 55.48271484 10.59980469 56.74277344 10.55664062 58.04101562 C10.51682404 59.38150736 10.47711186 60.7220022 10.4375 62.0625 C10.39431958 63.40691523 10.35070544 64.7513166 10.30664062 66.09570312 C10.20014642 69.3970234 10.0981354 72.69842236 10 76 C6.7 76 3.4 76 0 76 C0 50.92 0 25.84 0 0 Z " fill="#EAECF2" transform="translate(223,200)"/>
<path d="M0 0 C2.82631003 0.29750632 4.56696127 0.65655549 6.8125 2.4375 C8 4 8 4 8 6 C8.556875 6.08636719 9.11375 6.17273438 9.6875 6.26171875 C17.37905518 7.67790036 23.92576719 10.86863535 29 17 C29 17.66 29 18.32 29 19 C33.09305456 17.34703566 36.58983503 15.86453858 40 13 C40.99 13.495 40.99 13.495 42 14 C38.7 16.31 35.4 18.62 32 21 C32.83462035 25.71058562 32.83462035 25.71058562 34 29 C34.66885392 36.49993573 34.48303033 41.8358333 30 48 C28.68 48 27.36 48 26 48 C22.68662467 44.50254826 21.71834399 41.93390034 21.5625 37.125 C21.74769255 32.23591662 23.02222434 28.44999524 25 24 C24.09636719 24.28875 23.19273437 24.5775 22.26171875 24.875 C20.49248047 25.431875 20.49248047 25.431875 18.6875 26 C17.51574219 26.37125 16.34398437 26.7425 15.13671875 27.125 C12 28 12 28 9 28 C8.98582031 28.61746094 8.97164063 29.23492187 8.95703125 29.87109375 C8.57333358 36.68432002 6.72122179 41.31518147 3 47 C2.34 46.67 1.68 46.34 1 46 C1.3609375 45.31292969 1.721875 44.62585938 2.09375 43.91796875 C2.5578125 43.01691406 3.021875 42.11585938 3.5 41.1875 C3.9640625 40.29417969 4.428125 39.40085937 4.90625 38.48046875 C6.20173141 35.99431974 6.20173141 35.99431974 6 33 C4.35 34.65 2.7 36.3 1 38 C2.12451727 35.0280615 3.22293791 32.66559313 5 30 C-1.69212882 33.77504703 -5.14721363 36.80601698 -8 44 C-9 41 -9 41 -7.3125 37.5 C-5.58451943 34.65214351 -3.88770643 32.75325033 -1 31 C-3.97 31 -6.94 31 -10 31 C-10 34.96 -10 38.92 -10 43 C-10.33 42.01 -10.66 41.02 -11 40 C-14.0109362 42.0072908 -14.63016497 42.83884224 -16 46 C-17 44 -17 44 -16.0625 41.125 C-15.5365625 39.578125 -15.5365625 39.578125 -15 38 C-15 36.68 -15 35.36 -15 34 C-18.79949471 38.79066725 -18.88797967 44.10600716 -19 50 C-18.66204354 53.4800332 -18.66204354 53.4800332 -18 56 C-20.30953344 54.20505757 -20.95096377 53.29819329 -21.43359375 50.36328125 C-21.44250599 43.4028198 -20.69461601 38.93377723 -17 33 C-16.67 32.67 -16.34 32.34 -16 32 C-19.77336551 31.51657951 -23.24351284 31.31747598 -27 32 C-28.98705582 33.78704583 -30.14832278 35.62466018 -31.55859375 37.88671875 C-33.97750553 41.43314496 -36.99629071 43.50910825 -41 45 C-44.38296745 45.37212642 -47.61494432 45.31214653 -51 45 C-51 40.17780964 -50.34650536 39.34650536 -47 36 C-43.36192963 33.7474926 -39.62298171 32.20388492 -35.5625 30.875 C-32.84914167 30.28322227 -32.84914167 30.28322227 -32 28 C-33.98 27.01 -35.96 26.02 -38 25 C-38.495 26.485 -38.495 26.485 -39 28 C-39.91523438 27.98839844 -40.83046875 27.97679687 -41.7734375 27.96484375 C-42.96195313 27.95582031 -44.15046875 27.94679688 -45.375 27.9375 C-46.55835938 27.92589844 -47.74171875 27.91429687 -48.9609375 27.90234375 C-51.91921521 27.78533407 -51.91921521 27.78533407 -54 29 C-59.87490762 29.39829882 -63.69397013 28.857093 -69 26 C-71.4375 23.8125 -71.4375 23.8125 -73 22 C-72.01 20.515 -72.01 20.515 -71 19 C-63.51843042 17.58042013 -57.54896683 19.60272346 -51 23 C-50.01 23.33 -49.02 23.66 -48 24 C-48.721875 23.34 -49.44375 22.68 -50.1875 22 C-54.07034875 18.09496355 -57.665414 13.62092368 -58.375 8.0625 C-58 6 -58 6 -57 5 C-54.5625 4.75 -54.5625 4.75 -52 5 C-51.01 6.485 -51.01 6.485 -50 8 C-52.97 7.505 -52.97 7.505 -56 7 C-55.41196203 10.02419525 -54.77321882 13.01758453 -54 16 C-53.46375 15.731875 -52.9275 15.46375 -52.375 15.1875 C-50 15 -50 15 -46.875 17.3125 C-45.22814675 18.85194978 -43.59405634 20.40594366 -42 22 C-41.67 21.01 -41.34 20.02 -41 19 C-40.34 19.763125 -39.68 20.52625 -39 21.3125 C-35.8627778 24.45866016 -32.28288966 25.95269298 -28 27 C-26.68 27 -25.36 27 -24 27 C-24.495 26.01 -24.495 26.01 -25 25 C-23.68 24.67 -22.36 24.34 -21 24 C-20.690625 24.66 -20.38125 25.32 -20.0625 26 C-17.54442986 28.44176498 -16.71892628 28.27142406 -13.3125 28.25 C-11.1778125 28.12625 -11.1778125 28.12625 -9 28 C-11.31 26.02 -13.62 24.04 -16 22 C-15.67 21.34 -15.34 20.68 -15 20 C-14.52949219 20.42152344 -14.05898437 20.84304688 -13.57421875 21.27734375 C-12.95160156 21.82519531 -12.32898438 22.37304688 -11.6875 22.9375 C-10.76517578 23.75541016 -10.76517578 23.75541016 -9.82421875 24.58984375 C-7.94758042 26.20081559 -7.94758042 26.20081559 -5 27 C-4.11443256 25.31026274 -4.11443256 25.31026274 -4 23 C-5.85250004 19.76238866 -5.85250004 19.76238866 -8 17 C-7.67 16.34 -7.34 15.68 -7 15 C-1 22.2 -1 22.2 -1 28 C2.3 27.34 5.6 26.68 9 26 C8.0925 25.01 7.185 24.02 6.25 23 C0.81429046 16.57246668 -1.48493894 11.50710559 -1.23828125 3.00390625 C-1 1 -1 1 0 0 Z " fill="#C2C3C9" transform="translate(262,330)"/>
<path d="M0 0 C9.9 0 19.8 0 30 0 C30 0.33 30 0.66 30 1 C23.4 1 16.8 1 10 1 C10 15.85 10 30.7 10 46 C10.66 46.33 11.32 46.66 12 47 C11.505 47.495 11.505 47.495 11 48 C10.8415735 50.0708472 10.74875578 52.14678029 10.68359375 54.22265625 C10.64169922 55.48271484 10.59980469 56.74277344 10.55664062 58.04101562 C10.51682404 59.38150736 10.47711186 60.7220022 10.4375 62.0625 C10.39431958 63.40691523 10.35070544 64.7513166 10.30664062 66.09570312 C10.20014642 69.3970234 10.0981354 72.69842236 10 76 C6.7 76 3.4 76 0 76 C0 50.92 0 25.84 0 0 Z " fill="#F3F5FB" transform="translate(223,200)"/>
<path d="M0 0 C2.82631003 0.29750632 4.56696127 0.65655549 6.8125 2.4375 C8 4 8 4 8 6 C8.556875 6.08636719 9.11375 6.17273438 9.6875 6.26171875 C17.37905518 7.67790036 23.92576719 10.86863535 29 17 C29 17.66 29 18.32 29 19 C33.09305456 17.34703566 36.58983503 15.86453858 40 13 C40.66 13.33 41.32 13.66 42 14 C38.7 16.31 35.4 18.62 32 21 C32.83462035 25.71058562 32.83462035 25.71058562 34 29 C34.66885392 36.49993573 34.48303033 41.8358333 30 48 C28.68 48 27.36 48 26 48 C22.68662467 44.50254826 21.71834399 41.93390034 21.5625 37.125 C21.74769255 32.23591662 23.02222434 28.44999524 25 24 C23.95199219 24.34224609 23.95199219 24.34224609 22.8828125 24.69140625 C21.97273438 24.97886719 21.06265625 25.26632812 20.125 25.5625 C19.22007812 25.85253906 18.31515625 26.14257812 17.3828125 26.44140625 C15 27 15 27 13 26 C13 22.66666667 13 19.33333333 13 16 C12.67 16 12.34 16 12 16 C12 17.65 12 19.3 12 21 C10 18.33333333 8 15.66666667 6 13 C6.680625 14.093125 7.36125 15.18625 8.0625 16.3125 C9.22265625 18.17578125 9.22265625 18.17578125 10 20 C9.67 20.99 9.34 21.98 9 23 C4.27959229 20.97696812 2.24531698 17.95696878 -0.05859375 13.55859375 C-1.58411607 9.41246463 -1.60424235 5.35054494 -1 1 C-0.67 0.67 -0.34 0.34 0 0 Z " fill="#BCBDC4" transform="translate(262,330)"/>
<path d="M0 0 C-1.2065625 0.8971875 -1.2065625 0.8971875 -2.4375 1.8125 C-5.22327984 3.80947276 -5.22327984 3.80947276 -6 7 C-5.443125 6.236875 -4.88625 5.47375 -4.3125 4.6875 C-2.01587126 2.01844497 -0.12752243 0.56376121 3 -1 C3.66 -1 4.32 -1 5 -1 C4.34 0.65 3.68 2.3 3 4 C3.99 3.01 4.98 2.02 6 1 C7.1792926 3.8620259 7.01953176 4.94708669 5.92578125 7.91015625 C5.39339844 8.95042969 4.86101562 9.99070312 4.3125 11.0625 C3.79300781 12.10535156 3.27351563 13.14820313 2.73828125 14.22265625 C1.02010418 16.9678785 -0.23203668 18.37497261 -3 20 C-6.25 20.6875 -6.25 20.6875 -9 21 C-9.66 20.01 -10.32 19.02 -11 18 C-12.32 20.64 -13.64 23.28 -15 26 C-15.99 26 -16.98 26 -18 26 C-20.31249857 19.87868027 -20.36631229 14.40819709 -19 8 C-17.88951457 5.56439751 -16.77187353 4.04872877 -15 2 C-14.67 2 -14.34 2 -14 2 C-14.165 3.11375 -14.33 4.2275 -14.5 5.375 C-15.0455458 8.72032033 -15.0455458 8.72032033 -15 11 C-12.96116112 10.33576793 -12.96116112 10.33576793 -11 9 C-10.3006486 6.81458448 -10.3006486 6.81458448 -10.25 4.375 C-10.19328125 3.55773437 -10.1365625 2.74046875 -10.078125 1.8984375 C-10.05234375 1.27195312 -10.0265625 0.64546875 -10 0 C-6.33694766 -0.74926071 -3.57644848 -1.2380014 0 0 Z " fill="#A1A2A9" transform="translate(262,361)"/>
<path d="M0 0 C8.40117073 2.208 8.40117073 2.208 10.9375 5.5625 C13.75182353 8.88851872 16.1472055 8.76268055 20.32421875 9.40625 C25.48754763 10.55198137 30.26667659 13.26667659 34 17 C33.505 18.485 33.505 18.485 33 20 C33.495 20.99 33.495 20.99 34 22 C27.447378 21.69663787 22.67108105 20.26393154 17 17 C16.34 16.67 15.68 16.34 15 16 C14.67 16.66 14.34 17.32 14 18 C13.63648438 17.50628906 13.27296875 17.01257813 12.8984375 16.50390625 C9.370003 12.00741407 7.71386294 10.88882312 2 10 C0.0625 7.1875 0.0625 7.1875 -1 4 C-0.56640625 1.80078125 -0.56640625 1.80078125 0 0 Z " fill="#54535B" transform="translate(206,336)"/>
<path d="M0 0 C2.96404505 2.80804268 5.44499019 5.18315774 7 9 C7 7.35 7 5.7 7 4 C8.32 5.32 9.64 6.64 11 8 C10.34 8 9.68 8 9 8 C9 10.64 9 13.28 9 16 C9.66 16.33 10.32 16.66 11 17 C9.02 17.33 7.04 17.66 5 18 C4.97873047 18.92619141 4.97873047 18.92619141 4.95703125 19.87109375 C4.57333358 26.68432002 2.72122179 31.31518147 -1 37 C-1.66 36.67 -2.32 36.34 -3 36 C-2.6390625 35.31292969 -2.278125 34.62585938 -1.90625 33.91796875 C-1.21015625 32.56638672 -1.21015625 32.56638672 -0.5 31.1875 C-0.0359375 30.29417969 0.428125 29.40085937 0.90625 28.48046875 C2.20173141 25.99431974 2.20173141 25.99431974 2 23 C0.35 24.65 -1.3 26.3 -3 28 C-1.87548273 25.0280615 -0.77706209 22.66559313 1 20 C-5.69212882 23.77504703 -9.14721363 26.80601698 -12 34 C-13 31 -13 31 -11.3125 27.5 C-9.58451943 24.65214351 -7.88770643 22.75325033 -5 21 C-5.85271484 21.01740234 -5.85271484 21.01740234 -6.72265625 21.03515625 C-11.60670484 21.09223194 -16.18503965 20.81956772 -21 20 C-21 19.67 -21 19.34 -21 19 C-17.04 18.505 -17.04 18.505 -13 18 C-15.31 16.02 -17.62 14.04 -20 12 C-19.67 11.34 -19.34 10.68 -19 10 C-18.52949219 10.42152344 -18.05898437 10.84304688 -17.57421875 11.27734375 C-16.95160156 11.82519531 -16.32898438 12.37304688 -15.6875 12.9375 C-15.07261719 13.48277344 -14.45773438 14.02804687 -13.82421875 14.58984375 C-11.94758042 16.20081559 -11.94758042 16.20081559 -9 17 C-8.11443256 15.31026274 -8.11443256 15.31026274 -8 13 C-9.85250004 9.76238866 -9.85250004 9.76238866 -12 7 C-11.67 6.34 -11.34 5.68 -11 5 C-5 12.2 -5 12.2 -5 18 C-1.7 17.34 1.6 16.68 5 16 C4.34 14.68 3.68 13.36 3 12 C3.66 12 4.32 12 5 12 C3.83236367 8.04800013 2.53585145 5.2274473 0 2 C0 1.34 0 0.68 0 0 Z " fill="#C6C7CE" transform="translate(266,340)"/>
<path d="M0 0 C0.99 0 1.98 0 3 0 C3.10957031 1.30453125 3.21914062 2.6090625 3.33203125 3.953125 C6.30150696 37.49148917 18.86867915 62.68057406 43 86 C42.01 86.33 41.02 86.66 40 87 C17.02435258 65.51412799 2.67840884 38.61656155 0 7 C-0.07380665 4.65637155 -0.05659142 2.34540013 0 0 Z " fill="#D7D9DF" transform="translate(130,242)"/>
<path d="M0 0 C0.66 0 1.32 0 2 0 C0.67845944 34.67904714 -12.97198886 63.25669666 -38 87 C-38.99 86.67 -39.98 86.34 -41 86 C-40.07058594 85.10539062 -39.14117187 84.21078125 -38.18359375 83.2890625 C-31.34920153 76.63758589 -24.96601678 70.20686644 -20 62 C-19.34644531 60.95585937 -18.69289063 59.91171875 -18.01953125 58.8359375 C-10.65285292 46.7549313 -5.9619816 33.82258082 -3 20 C-2.70996094 18.70835937 -2.70996094 18.70835937 -2.4140625 17.390625 C-1.17815909 11.62307575 -0.47514247 5.87676218 0 0 Z " fill="#DCDEE4" transform="translate(368,242)"/>
<path d="M0 0 C4.53030991 0.53297764 7.45025069 2.16020055 11 5 C12.1875 7.4375 12.1875 7.4375 13 10 C13.556875 10.86625 14.11375 11.7325 14.6875 12.625 C15.120625 13.40875 15.55375 14.1925 16 15 C15 18 15 18 13.2578125 18.9140625 C9.86742445 19.04310841 8.45499367 17.49290525 5.875 15.375 C5.00617188 14.68148438 4.13734375 13.98796875 3.2421875 13.2734375 C0.87907035 10.87738492 -0.11021398 9.22288774 -1 6 C-0.625 2.6875 -0.625 2.6875 0 0 Z " fill="#46454E" transform="translate(243,338)"/>
<path d="M0 0 C-0.66 1.65 -1.32 3.3 -2 5 C-1.01 4.01 -0.02 3.02 1 2 C1.96149917 4.57992323 2.07155145 5.77787013 1.21484375 8.4375 C-1.48241306 13.8485106 -3.43809302 17.39655418 -9 20 C-10.32 20 -11.64 20 -13 20 C-13.52798395 14.08657977 -12.89620126 10.67527134 -9.50390625 5.765625 C-7.01944803 2.84880652 -4.01864798 0 0 0 Z " fill="#211F28" transform="translate(267,360)"/>
<path d="M0 0 C0.99 0 1.98 0 3 0 C7.44510423 5.10492439 11.75020008 12.08646798 12.1875 18.9375 C12.125625 19.618125 12.06375 20.29875 12 21 C10 18.33333333 8 15.66666667 6 13 C6.680625 14.093125 7.36125 15.18625 8.0625 16.3125 C9.22265625 18.17578125 9.22265625 18.17578125 10 20 C9.67 20.99 9.34 21.98 9 23 C4.27959229 20.97696812 2.24531698 17.95696878 -0.05859375 13.55859375 C-1.58411607 9.41246463 -1.60424235 5.35054494 -1 1 C-0.67 0.67 -0.34 0.34 0 0 Z " fill="#47464E" transform="translate(262,330)"/>
<path d="M0 0 C0.33 0 0.66 0 1 0 C1 3.96 1 7.92 1 12 C1.66 8.37 2.32 4.74 3 1 C5.36543381 4.54815071 5.26923313 6.17256132 5.25 10.375 C5.25515625 11.49648438 5.2603125 12.61796875 5.265625 13.7734375 C5.00575269 16.93012177 4.34320698 19.15368045 3 22 C1.68 22 0.36 22 -1 22 C-4.1261197 17.24829805 -4.25809565 13.8495429 -3.52734375 8.4140625 C-2.84644631 5.29706533 -1.64736506 2.72173358 0 0 Z " fill="#16141D" transform="translate(289,354)"/>
<path d="M0 0 C1.875 1.125 1.875 1.125 3 3 C3.54955021 6.68983715 3.45269677 8.34610467 1.3125 11.4375 C-1 13 -1 13 -3.5625 12.9375 C-6.21650072 11.91673049 -7.44107407 11.37941326 -9 9 C-9.39365568 5.85075452 -9.52854531 3.88090884 -7.875 1.125 C-5.11909116 -0.52854531 -3.14924548 -0.39365568 0 0 Z " fill="#616068" transform="translate(252,108)"/>
<path d="M0 0 C6.3836478 1.27672956 6.3836478 1.27672956 9 5 C8.85205998 8.6985004 8.64194427 10.35805573 6 13 C0.70750819 13.49004554 -0.5900607 13.30745448 -5 10 C-3.35 6.7 -1.7 3.4 0 0 Z " fill="#4B4A52" transform="translate(297,118)"/>
<path d="M0 0 C0.33 0 0.66 0 1 0 C0.835 1.11375 0.67 2.2275 0.5 3.375 C-0.0455458 6.72032033 -0.0455458 6.72032033 0 9 C1.32 8.34 2.64 7.68 4 7 C3.54939339 9.10583487 3.08924044 11.20962872 2.625 13.3125 C2.36976563 14.48425781 2.11453125 15.65601563 1.8515625 16.86328125 C1 20 1 20 -1 23 C-1.66 23 -2.32 23 -3 23 C-5.60518482 17.32989185 -5.25842342 11.98194229 -4 6 C-2.89057932 3.56207136 -1.77300291 2.05003462 0 0 Z " fill="#16141D" transform="translate(247,363)"/>
<path d="M0 0 C4.5132828 3.88643796 7.40139058 8.19725542 9 14 C8.49415748 18.30756517 5.99668368 20.00331632 3 23 C1.20679176 26.16645474 1.20679176 26.16645474 0 29 C-1 26 -1 26 0.6875 22.5 C2.41548057 19.65214351 4.11229357 17.75325033 7 16 C6.14728516 16.01740234 6.14728516 16.01740234 5.27734375 16.03515625 C0.39329516 16.09223194 -4.18503965 15.81956772 -9 15 C-9 14.67 -9 14.34 -9 14 C-6.36 13.67 -3.72 13.34 -1 13 C-3.31 11.02 -5.62 9.04 -8 7 C-7.67 6.34 -7.34 5.68 -7 5 C-6.52949219 5.42152344 -6.05898437 5.84304688 -5.57421875 6.27734375 C-4.95160156 6.82519531 -4.32898438 7.37304688 -3.6875 7.9375 C-3.07261719 8.48277344 -2.45773438 9.02804687 -1.82421875 9.58984375 C0.05241958 11.20081559 0.05241958 11.20081559 3 12 C3.88556744 10.31026274 3.88556744 10.31026274 4 8 C2.73339467 5.95708818 1.40113616 3.95309888 0 2 C0 1.34 0 0.68 0 0 Z " fill="#BEBFC5" transform="translate(254,345)"/>
<path d="M0 0 C-1.98 1.32 -3.96 2.64 -6 4 C-3.03 2.68 -0.06 1.36 3 0 C0.6894928 4.62101441 -1.3789193 6.76913345 -6 9 C-9.33590319 9.67009409 -12.60173152 9.92478681 -16 10 C-15.16287841 5.7342421 -13.63711691 4.45110053 -10 2 C-3.85858586 -1.28619529 -3.85858586 -1.28619529 0 0 Z " fill="#1C1A23" transform="translate(228,364)"/>
<path d="M0 0 C5.01448266 1.074532 7.55637318 3.03322411 10.67578125 6.9140625 C12.86570873 10.36368279 13.98315157 14.06640211 15 18 C14.278125 17.236875 13.55625 16.47375 12.8125 15.6875 C9.38147446 12.40896448 6.85089963 10 2 10 C-1.07692308 4.58461538 -1.07692308 4.58461538 -0.6875 1.625 C-0.460625 1.08875 -0.23375 0.5525 0 0 Z " fill="#16141D" transform="translate(206,336)"/>
<path d="M0 0 C0.99 0 1.98 0 3 0 C3.10957031 1.30453125 3.21914062 2.6090625 3.33203125 3.953125 C4.10742957 12.67280878 4.91371601 21.13685579 7.31640625 29.58984375 C8.02070862 32.07301269 8.68322243 34.43540349 9 37 C8.34 37.66 7.68 38.32 7 39 C4.0614755 31.66114693 2.41077551 24.48138072 1.25 16.6875 C1.12262451 15.84026367 0.99524902 14.99302734 0.86401367 14.12011719 C0.19683695 9.36432068 -0.12958341 4.8010654 0 0 Z " fill="#D8D9DF" transform="translate(130,242)"/>
<path d="M0 0 C6.39456368 1.52724531 10.79415459 2.81279066 15 8 C12.36 7.34 9.72 6.68 7 6 C10.3 7.65 13.6 9.3 17 11 C17 11.33 17 11.66 17 12 C6.94482759 11.36470588 6.94482759 11.36470588 3 8 C0 2.93103448 0 2.93103448 0 0 Z " fill="#1A1821" transform="translate(272,338)"/>
<path d="M0 0 C0.66 0 1.32 0 2 0 C1.49019891 13.37788383 0.33718959 26.54655762 -5 39 C-6.109375 37.4453125 -6.109375 37.4453125 -7 35 C-6.390625 31.6796875 -6.390625 31.6796875 -5.25 27.875 C-4.86111055 26.52536317 -4.47439142 25.17509908 -4.08984375 23.82421875 C-3.73019531 22.56222656 -3.37054688 21.30023438 -3 20 C-1.4152716 13.38036307 -0.54818307 6.78015908 0 0 Z " fill="#D2D3D9" transform="translate(368,242)"/>
<path d="M0 0 C0.66 0 1.32 0 2 0 C2 0.99 2 1.98 2 3 C0.35 3.33 -1.3 3.66 -3 4 C-2.67 4.66 -2.34 5.32 -2 6 C-1.01 6 -0.02 6 1 6 C1.66 5.34 2.32 4.68 3 4 C2.67 5.65 2.34 7.3 2 9 C0.35 9 -1.3 9 -3 9 C-3 9.66 -3 10.32 -3 11 C-5.375 11.1875 -5.375 11.1875 -8 11 C-10.1519437 7.77208445 -10.20086443 6.71599191 -10 3 C-9.04287109 2.80083984 -9.04287109 2.80083984 -8.06640625 2.59765625 C-7.24011719 2.42105469 -6.41382813 2.24445313 -5.5625 2.0625 C-4.73878906 1.88847656 -3.91507812 1.71445313 -3.06640625 1.53515625 C-1.02338796 1.19247006 -1.02338796 1.19247006 0 0 Z " fill="#92929A" transform="translate(372,200)"/>
<path d="M0 0 C1.65 0.33 3.3 0.66 5 1 C5.144375 1.7425 5.28875 2.485 5.4375 3.25 C5.91956351 5.92680691 5.91956351 5.92680691 6.75 8.125 C7 10 7 10 5.875 11.75 C3.46481126 13.35679249 1.84146583 13.09316281 -1 13 C-1.13277344 12.30132812 -1.26554688 11.60265625 -1.40234375 10.8828125 C-1.57894531 9.97273438 -1.75554687 9.06265625 -1.9375 8.125 C-2.11152344 7.22007813 -2.28554687 6.31515625 -2.46484375 5.3828125 C-2.89963701 3.00043683 -2.89963701 3.00043683 -4 1 C-3.01 1 -2.02 1 -1 1 C-0.67 2.65 -0.34 4.3 0 6 C0.66 5.67 1.32 5.34 2 5 C2 4.01 2 3.02 2 2 C1.34 1.34 0.68 0.68 0 0 Z " fill="#B3B4BB" transform="translate(223,110)"/>
<path d="M0 0 C6.02839298 -0.39315606 11.40447021 0.66316955 17 3 C17.33 3.66 17.66 4.32 18 5 C15.03 5 12.06 5 9 5 C10.32 5.66 11.64 6.32 13 7 C6.88225104 7.49940808 3.97504047 6.24900602 -1 3 C-0.67 2.01 -0.34 1.02 0 0 Z " fill="#1D1B24" transform="translate(192,350)"/>
<path d="M0 0 C1.2684375 0.12375 1.2684375 0.12375 2.5625 0.25 C3.2225 1.24 3.8825 2.23 4.5625 3.25 C1.5925 2.755 1.5925 2.755 -1.4375 2.25 C-0.84946203 5.27419525 -0.21071882 8.26758453 0.5625 11.25 C1.09875 10.981875 1.635 10.71375 2.1875 10.4375 C4.5625 10.25 4.5625 10.25 7.75 12.375 C10.41391649 14.77051181 11.35328357 16.58871248 11.5625 20.25 C6.59989629 19.45598341 4.31032756 18.44032401 1.25 14.375 C-1.77756119 10.011994 -3.87827282 6.68619814 -3.4375 1.25 C-2.4375 0.25 -2.4375 0.25 0 0 Z " fill="#808087" transform="translate(207.4375,334.75)"/>
<path d="M0 0 C0.33 0.99 0.66 1.98 1 3 C0.360625 3.28875 -0.27875 3.5775 -0.9375 3.875 C-3.15206079 4.82823451 -3.15206079 4.82823451 -4 7 C-2.68 7 -1.36 7 0 7 C-0.33 7.99 -0.66 8.98 -1 10 C-4.63 10 -8.26 10 -12 10 C-12.125 6.625 -12.125 6.625 -12 3 C-11.34 2.34 -10.68 1.68 -10 1 C-7.90076041 1.10496198 -5.93793067 1.5118662 -3.875 1.90625 C-3.25625 1.9371875 -2.6375 1.968125 -2 2 C-1.34 1.34 -0.68 0.68 0 0 Z " fill="#BEC0C6" transform="translate(129,225)"/>
<path d="M0 0 C0.66 0 1.32 0 2 0 C3.7265625 1.93359375 3.7265625 1.93359375 5.625 4.4375 C6.25664062 5.26121094 6.88828125 6.08492187 7.5390625 6.93359375 C9 9 9 9 9 10 C5.37 10 1.74 10 -2 10 C-0.16666667 13.16666667 -0.16666667 13.16666667 3 15 C1.02 15.99 1.02 15.99 -1 17 C-1.598125 15.906875 -2.19625 14.81375 -2.8125 13.6875 C-4.29044697 11.08925871 -5.69822933 8.95650507 -8 7 C-3.9472484 6.01751476 -0.16138263 5.91840426 4 6 C2.35 4.35 0.7 2.7 -1 1 C-0.67 0.67 -0.34 0.34 0 0 Z " fill="#C0C1C8" transform="translate(166,136)"/>
<path d="M0 0 C0.99 0 1.98 0 3 0 C3 0.66 3 1.32 3 2 C3.66 2 4.32 2 5 2 C5.1875 4.875 5.1875 4.875 5 8 C4.01 8.66 3.02 9.32 2 10 C0.80767387 12.05003955 0.80767387 12.05003955 0 14 C-1 12 -1 12 -0.0625 9.125 C0.288125 8.09375 0.63875 7.0625 1 6 C1 4.68 1 3.36 1 2 C-2.79949471 6.79066725 -2.88797967 12.10600716 -3 18 C-2.66204354 21.4800332 -2.66204354 21.4800332 -2 24 C-4.30953344 22.20505757 -4.95096377 21.29819329 -5.43359375 18.36328125 C-5.44250599 11.4028198 -4.69461601 6.93377723 -1 1 C-0.67 0.67 -0.34 0.34 0 0 Z " fill="#B4B4BB" transform="translate(246,362)"/>
<path d="M0 0 C1.9375 0.8125 1.9375 0.8125 4 2 C4.33 2.99 4.66 3.98 5 5 C6.84266562 5.62502722 6.84266562 5.62502722 9.0625 5.875 C14.08950599 6.83061296 18.01950363 8.78314802 22 12 C22.99 13.485 22.99 13.485 24 15 C23.01 15.66 22.02 16.32 21 17 C18.36 15.68 15.72 14.36 13 13 C15 12 15 12 18.125 12.9375 C19.548125 13.4634375 19.548125 13.4634375 21 14 C16.4943313 10.73339019 12.264829 8.81545828 7 7 C7.66 8.98 8.32 10.96 9 13 C8.34 13 7.68 13 7 13 C6.66226562 12.31292969 6.32453125 11.62585938 5.9765625 10.91796875 C5.53054688 10.01691406 5.08453125 9.11585938 4.625 8.1875 C4.18414062 7.29417969 3.74328125 6.40085937 3.2890625 5.48046875 C1.98133095 2.85443619 1.98133095 2.85443619 0 0 Z " fill="#B5B6BD" transform="translate(265,331)"/>
<path d="M0 0 C0.680625 0.804375 1.36125 1.60875 2.0625 2.4375 C5.48477302 5.42288711 7.5428126 5.73781251 12 6 C12 10.29 12 14.58 12 19 C11.67 19 11.34 19 11 19 C11 16.03 11 13.06 11 10 C10.34 10 9.68 10 9 10 C9 9.34 9 8.68 9 8 C5.7 7.67 2.4 7.34 -1 7 C-0.67 5.68 -0.34 4.36 0 3 C-0.99 2.67 -1.98 2.34 -3 2 C-2.01 1.34 -1.02 0.68 0 0 Z " fill="#E4E6EC" transform="translate(240,354)"/>
<path d="M0 0 C4.62 0.99 9.24 1.98 14 3 C13.01 4.32 12.02 5.64 11 7 C11 6.34 11 5.68 11 5 C9.35 5.33 7.7 5.66 6 6 C6.7763932 9.0745356 6.7763932 9.0745356 9 11 C8.01 11.66 7.02 12.32 6 13 C4.99491199 11.21118264 3.99607264 9.41885304 3 7.625 C2.1646875 6.12839844 2.1646875 6.12839844 1.3125 4.6015625 C0 2 0 2 0 0 Z " fill="#C5C6CD" transform="translate(144,158)"/>
<path d="M0 0 C0.99 0 1.98 0 3 0 C2.835 0.515625 2.67 1.03125 2.5 1.5625 C1.84951 4.73363876 1.9379266 7.77218334 2 11 C3.65 11.33 5.3 11.66 7 12 C7.33 8.7 7.66 5.4 8 2 C9.32 2.33 10.64 2.66 12 3 C10.92443717 6.48608894 9.771949 9.80290547 8 13 C4.9375 14.3125 4.9375 14.3125 2 14 C0.296875 12.8359375 0.296875 12.8359375 -1 11 C-1.07421875 8.30078125 -1.07421875 8.30078125 -0.6875 5.3125 C-0.56761719 4.31863281 -0.44773437 3.32476562 -0.32421875 2.30078125 C-0.21722656 1.54152344 -0.11023438 0.78226562 0 0 Z " fill="#BBBCC3" transform="translate(271,110)"/>
<path d="M0 0 C0.94875 0.33 1.8975 0.66 2.875 1 C5.77062452 2.10159191 5.77062452 2.10159191 8 2 C8.33 2.99 8.66 3.98 9 5 C3.39 5 -2.22 5 -8 5 C-8 4.67 -8 4.34 -8 4 C-10.31 3.34 -12.62 2.68 -15 2 C-12.01478951 1.00492984 -10.04848008 0.89626462 -6.9375 0.9375 C-5.62072266 0.95103516 -5.62072266 0.95103516 -4.27734375 0.96484375 C-3.52582031 0.97644531 -2.77429688 0.98804688 -2 1 C-1.34 1 -0.68 1 0 1 C0 0.67 0 0.34 0 0 Z " fill="#E0E2E8" transform="translate(214,353)"/>
<path d="M0 0 C-0.66 1.32 -1.32 2.64 -2 4 C-3.32 3.67 -4.64 3.34 -6 3 C-6 4.65 -6 6.3 -6 8 C-8.49361571 6.79618552 -10.68143083 5.54571278 -13 4 C-13 3.01 -13 2.02 -13 1 C-11.20843648 0.83222817 -9.4167455 0.66581706 -7.625 0.5 C-6.62726563 0.4071875 -5.62953125 0.314375 -4.6015625 0.21875 C-2 0 -2 0 0 0 Z " fill="#ABABB2" transform="translate(135,202)"/>
<path d="M0 0 C4.29 1.32 8.58 2.64 13 4 C12 7 12 7 9.49609375 8.38671875 C8.48675781 8.81597656 7.47742188 9.24523437 6.4375 9.6875 C5.42558594 10.12449219 4.41367187 10.56148437 3.37109375 11.01171875 C2.58863281 11.33785156 1.80617188 11.66398438 1 12 C1 10.68 1 9.36 1 8 C2.134375 7.690625 3.26875 7.38125 4.4375 7.0625 C7.78775099 6.37075469 7.78775099 6.37075469 9 5 C6.03 4.67 3.06 4.34 0 4 C0 2.68 0 1.36 0 0 Z " fill="#C0C1C8" transform="translate(366,224)"/>
<path d="M0 0 C-1.98 0.99 -1.98 0.99 -4 2 C-4 2.99 -4 3.98 -4 5 C-3.01 5 -2.02 5 -1 5 C-0.67 4.34 -0.34 3.68 0 3 C0.33 3.99 0.66 4.98 1 6 C0.01 6.66 -0.98 7.32 -2 8 C-1.01 9.32 -0.02 10.64 1 12 C-0.98 12.99 -0.98 12.99 -3 14 C-3.18175781 13.44570312 -3.36351562 12.89140625 -3.55078125 12.3203125 C-3.92783203 11.23363281 -3.92783203 11.23363281 -4.3125 10.125 C-4.55613281 9.40570313 -4.79976562 8.68640625 -5.05078125 7.9453125 C-5.96335547 5.66005095 -5.96335547 5.66005095 -9 4 C-9 3.34 -9 2.68 -9 2 C-3.375 -1.125 -3.375 -1.125 0 0 Z " fill="#C5C7CD" transform="translate(189,124)"/>
<path d="M0 0 C0.99 0 1.98 0 3 0 C3.33 5.61 3.66 11.22 4 17 C3.01 16.67 2.02 16.34 1 16 C0.67 10.72 0.34 5.44 0 0 Z " fill="#B7B8BF" transform="translate(130,242)"/>
<path d="M0 0 C0.66 0 1.32 0 2 0 C1.67 3.96 1.34 7.92 1 12 C1.66 12.33 2.32 12.66 3 13 C-0.75 16 -0.75 16 -3 16 C-2.69106068 14.3743193 -2.3777305 12.74947252 -2.0625 11.125 C-1.80146484 9.76761719 -1.80146484 9.76761719 -1.53515625 8.3828125 C-1 6 -1 6 0 4 C-0.66 3.67 -1.32 3.34 -2 3 C-1.34 2.01 -0.68 1.02 0 0 Z " fill="#C5C6CD" transform="translate(351,159)"/>
<path d="M0 0 C-0.7425 0.556875 -1.485 1.11375 -2.25 1.6875 C-4.91707995 3.93027178 -6.91556232 6.22074975 -9 9 C-9.33 6.03 -9.66 3.06 -10 0 C-6.33694766 -0.74926071 -3.57644848 -1.2380014 0 0 Z " fill="#15131C" transform="translate(262,361)"/>
<path d="M0 0 C4.91935902 4.11619836 9.52647956 8.40410362 14 13 C13.01 13.33 12.02 13.66 11 14 C9.15730989 12.23807715 7.32609243 10.46648194 5.5 8.6875 C4.97535156 8.18798828 4.45070312 7.68847656 3.91015625 7.17382812 C2.5489154 5.83910496 1.26860484 4.4230616 0 3 C0 2.01 0 1.02 0 0 Z " fill="#E0E2E8" transform="translate(159,315)"/>
<path d="M0 0 C2.55116434 1.27558217 2.68282276 2.2070569 3.7265625 4.81640625 C4.190625 5.96206055 4.190625 5.96206055 4.6640625 7.13085938 C4.98117188 7.93330078 5.29828125 8.73574219 5.625 9.5625 C5.94984375 10.36880859 6.2746875 11.17511719 6.609375 12.00585938 C7.41234106 14.0014662 8.20695702 16.00042907 9 18 C8.34 18.33 7.68 18.66 7 19 C0.29612756 6.51480638 0.29612756 6.51480638 0 0 Z " fill="#DDDFE5" transform="translate(138,279)"/>
<path d="M0 0 C3.63 0.66 7.26 1.32 11 2 C10 4 10 4 7.1875 5.125 C4 6 4 6 0 6 C0 4.02 0 2.04 0 0 Z " fill="#16141D" transform="translate(276,349)"/>
<path d="M0 0 C2.63886669 3.18483911 5.14494105 6.2898821 7 10 C6.67 10.99 6.34 11.98 6 13 C2.20273352 9.60244578 0.11599641 7.02198383 -1 2 C-0.67 1.34 -0.34 0.68 0 0 Z " fill="#1A1821" transform="translate(265,340)"/>
<path d="M0 0 C0.76183594 0.61488281 0.76183594 0.61488281 1.5390625 1.2421875 C5.5640887 4.39286344 8.95184246 6.73796061 14 8 C14 8.66 14 9.32 14 10 C12.51965236 9.52449439 11.04074979 9.04448784 9.5625 8.5625 C8.73878906 8.29566406 7.91507813 8.02882813 7.06640625 7.75390625 C5 7 5 7 4 6 C3.34 6.66 2.68 7.32 2 8 C2 7.34 2 6.68 2 6 C0.68 6.33 -0.64 6.66 -2 7 C-1.67 5.68 -1.34 4.36 -1 3 C-0.67 3 -0.34 3 0 3 C0 2.01 0 1.02 0 0 Z " fill="#C9CAD1" transform="translate(220,349)"/>
<path d="M0 0 C1.32 0.66 2.64 1.32 4 2 C3.01 2.33 2.02 2.66 1 3 C0.566875 4.11375 0.566875 4.11375 0.125 5.25 C-1.30506726 8.74571997 -3.07669711 10.63351671 -6 13 C-8.3125 12.8125 -8.3125 12.8125 -10 12 C-10 11.34 -10 10.68 -10 10 C-7.525 10.495 -7.525 10.495 -5 11 C-4.731875 10.29875 -4.46375 9.5975 -4.1875 8.875 C-2.9318551 5.8350176 -1.49764877 2.9272226 0 0 Z " fill="#B6B7BE" transform="translate(320,130)"/>
<path d="M0 0 C3.21147569 4.01434462 5.70304228 8.40608456 8 13 C7.34 13.66 6.68 14.32 6 15 C5.16151196 13.54462432 4.32936066 12.08559627 3.5 10.625 C3.0359375 9.81289062 2.571875 9.00078125 2.09375 8.1640625 C1 6 1 6 1 4 C0.01 4.33 -0.98 4.66 -2 5 C-1.34 3.35 -0.68 1.7 0 0 Z " fill="#C3C4CB" transform="translate(133,176)"/>
<path d="M0 0 C0 1.32 0 2.64 0 4 C-1.98 4.33 -3.96 4.66 -6 5 C-6.66 3.68 -7.32 2.36 -8 1 C-4.93251126 -0.86240388 -3.40254489 -1.2151946 0 0 Z " fill="#3D3C44" transform="translate(194,130)"/>
<path d="M0 0 C2.97 1.32 5.94 2.64 9 4 C5.64672361 6.23551759 5.09256343 6.17283528 1.3125 5.625 C0.50425781 5.51414062 -0.30398437 5.40328125 -1.13671875 5.2890625 C-2.05904297 5.14597656 -2.05904297 5.14597656 -3 5 C-2.01 4.67 -1.02 4.34 0 4 C0 2.68 0 1.36 0 0 Z " fill="#5B5B63" transform="translate(223,354)"/>
<path d="M0 0 C0.99 0.33 1.98 0.66 3 1 C4.31372549 6.25490196 4.31372549 6.25490196 3 9.375 C0.06949364 11.75603642 -2.34707914 11.27569214 -6 11 C-6 10.67 -6 10.34 -6 10 C-4.02 9.34 -2.04 8.68 0 8 C0.79953138 4.71303767 1.09658936 3.28976808 0 0 Z " fill="#C1C2C9" transform="translate(302,120)"/>
<path d="M0 0 C0.66 0 1.32 0 2 0 C2.1875 2.875 2.1875 2.875 2 6 C1.01 6.66 0.02 7.32 -1 8 C-2.19232613 10.05003955 -2.19232613 10.05003955 -3 12 C-4 10 -4 10 -3.0625 6.875 C-2.711875 5.92625 -2.36125 4.9775 -2 4 C-1.34 4 -0.68 4 0 4 C0 2.68 0 1.36 0 0 Z " fill="#67676E" transform="translate(249,364)"/>
<path d="M0 0 C0.99 0 1.98 0 3 0 C4.59138085 4.17737474 5.21278058 7.53160785 5 12 C4.34 12 3.68 12 3 12 C2.86722656 11.30132812 2.73445312 10.60265625 2.59765625 9.8828125 C2.42105469 8.97273438 2.24445313 8.06265625 2.0625 7.125 C1.88847656 6.22007813 1.71445313 5.31515625 1.53515625 4.3828125 C1.10036299 2.00043683 1.10036299 2.00043683 0 0 Z " fill="#CECFD6" transform="translate(219,111)"/>
<path d="M0 0 C1.98 0 3.96 0 6 0 C5.34 0.66 4.68 1.32 4 2 C5.83333333 5.16666667 5.83333333 5.16666667 9 7 C7.02 7.99 7.02 7.99 5 9 C1.125 2.25 1.125 2.25 0 0 Z " fill="#9999A0" transform="translate(160,144)"/>
<path d="M0 0 C1.64284201 2.95711562 2.6442194 5.62008426 3 9 C2.34 9.66 1.68 10.32 1 11 C0.01 7.7 -0.98 4.4 -2 1 C-1.34 0.67 -0.68 0.34 0 0 Z " fill="#C5C6CD" transform="translate(136,270)"/>
<path d="M0 0 C1.9375 0.6875 1.9375 0.6875 4 2 C4.625 4.5 4.625 4.5 5 7 C5.66 7.66 6.32 8.32 7 9 C6.01 9.66 5.02 10.32 4 11 C3.33125616 9.35500958 2.66505926 7.70898352 2 6.0625 C1.443125 4.68771484 1.443125 4.68771484 0.875 3.28515625 C0 1 0 1 0 0 Z " fill="#8D8D95" transform="translate(146,160)"/>
<path d="M0 0 C0.99 0.33 1.98 0.66 3 1 C2.01 4.3 1.02 7.6 0 11 C-2 7 -2 7 -1.125 3.25 C-0.75375 2.1775 -0.3825 1.105 0 0 Z " fill="#C3C4CB" transform="translate(363,270)"/>
<path d="M0 0 C1.65 0 3.3 0 5 0 C5 1.32 5 2.64 5 4 C3.68 4.33 2.36 4.66 1 5 C0.67 3.35 0.34 1.7 0 0 Z " fill="#201E27" transform="translate(223,117)"/>
<path d="M0 0 C2.64 0 5.28 0 8 0 C8 0.99 8 1.98 8 3 C7.01 2.67 6.02 2.34 5 2 C2.85744207 2.38932856 2.85744207 2.38932856 1 3 C0.67 2.01 0.34 1.02 0 0 Z " fill="#F1F3F9" transform="translate(262,358)"/>
<path d="M0 0 C0.45375 0.474375 0.9075 0.94875 1.375 1.4375 C2.93258204 3.09027808 2.93258204 3.09027808 5 4 C1.25 7 1.25 7 -1 7 C-0.67 4.69 -0.34 2.38 0 0 Z " fill="#B4B5BC" transform="translate(349,168)"/>
<path d="M0 0 C-0.598125 0.268125 -1.19625 0.53625 -1.8125 0.8125 C-3.97224808 1.98493467 -5.35790256 3.19369282 -7 5 C-7.66 4.67 -8.32 4.34 -9 4 C-9 3.34 -9 2.68 -9 2 C-3.375 -1.125 -3.375 -1.125 0 0 Z " fill="#ABACB3" transform="translate(189,124)"/>
<path d="M0 0 C1.98 0.495 1.98 0.495 4 1 C4 1.99 4 2.98 4 4 C2.35 4 0.7 4 -1 4 C-0.67 2.68 -0.34 1.36 0 0 Z " fill="#18161F" transform="translate(119,228)"/>
<path d="M0 0 C-0.99 1.485 -0.99 1.485 -2 3 C-3.32 2.67 -4.64 2.34 -6 2 C-6 1.34 -6 0.68 -6 0 C-3.50907189 -1.24546405 -2.58919267 -0.7767578 0 0 Z " fill="#27262E" transform="translate(375,204)"/>
<path d="M0 0 C2.475 0.99 2.475 0.99 5 2 C4.67 3.32 4.34 4.64 4 6 C3.34 6 2.68 6 2 6 C1.34 4.02 0.68 2.04 0 0 Z " fill="#292830" transform="translate(221,110)"/>
</svg>
